<svg width="491" height="463" viewBox="0 0 491 463" fill="none" xmlns="http://www.w3.org/2000/svg">
<rect width="491" height="463" fill="black"/>
<path d="M124.375 271V183.5H164.125C173.625 183.5 182 185.333 189.25 189C196.5 192.583 202.167 197.625 206.25 204.125C210.333 210.625 212.375 218.333 212.375 227.25C212.375 236.083 210.333 243.792 206.25 250.375C202.167 256.875 196.5 261.958 189.25 265.625C182 269.208 173.625 271 164.125 271H124.375ZM144.625 254.375H163.125C168.958 254.375 174 253.292 178.25 251.125C182.583 248.875 185.917 245.708 188.25 241.625C190.667 237.542 191.875 232.75 191.875 227.25C191.875 221.667 190.667 216.875 188.25 212.875C185.917 208.792 182.583 205.667 178.25 203.5C174 201.25 168.958 200.125 163.125 200.125H144.625V254.375ZM213.487 282.25V271H275.987V282.25H213.487ZM290.146 271V183.5H329.896C339.396 183.5 347.771 185.333 355.021 189C362.271 192.583 367.938 197.625 372.021 204.125C376.105 210.625 378.146 218.333 378.146 227.25C378.146 236.083 376.105 243.792 372.021 250.375C367.938 256.875 362.271 261.958 355.021 265.625C347.771 269.208 339.396 271 329.896 271H290.146ZM310.396 254.375H328.896C334.73 254.375 339.771 253.292 344.021 251.125C348.355 248.875 351.688 245.708 354.021 241.625C356.438 237.542 357.646 232.75 357.646 227.25C357.646 221.667 356.438 216.875 354.021 212.875C351.688 208.792 348.355 205.667 344.021 203.5C339.771 201.25 334.73 200.125 328.896 200.125H310.396V254.375Z" fill="white"/>
</svg>
